Coordinates
version=1
nRows=10
nColumns=46
inDegrees=yes

Units are S.I. units (second, meters, Newtons, ...)
Angles are in degrees.

endheader
time	pelvis_tilt	pelvis_list	pelvis_rotation	pelvis_tx	pelvis_ty	pelvis_tz	bb_angle	bb_tx	bb_ty	bb_tz	hip_flexion_r	hip_adduction_r	hip_rotation_r	knee_angle_r	knee_angle_r_beta	ankle_angle_r	subtalar_angle_r	mtp_angle_r	crank_angle_r	hip_flexion_l	hip_adduction_l	hip_rotation_l	knee_angle_l	knee_angle_l_beta	ankle_angle_l	subtalar_angle_l	mtp_angle_l	crank_angle_l	lumbar_extension	lumbar_bending	lumbar_rotation	arm_flex_r	arm_add_r	arm_rot_r	elbow_flex_r	pro_sup_r	wrist_flex_r	wrist_dev_r	arm_flex_l	arm_add_l	arm_rot_l	elbow_flex_l	pro_sup_l	wrist_flex_l	wrist_dev_l
      0.00500000	    -40.95579142	      1.00190559	     -2.47586411	      0.08952508	      0.96960385	     -0.20646205	      0.00000000	      0.50000000	      0.00000000	      0.25000000	    109.07974562	    -11.55149822	     -6.17569379	     82.83895757	      1.44581256	      5.19268418	      1.07574506	      0.00000000	      0.00000000	     81.47411591	     -9.79988385	     -0.82253287	     79.33575030	      1.38467006	     -8.91071714	    -11.17913196	      0.00000000	      0.00000000	    -21.97742661	      2.90024024	      1.08205433	     88.13465712	     -6.30038589	     58.72428211	     25.08481866	     43.89776206	      0.00000000	      0.00000000	     86.84566801	    -14.81913614	     60.72214755	     30.26408224	     45.12270777	      0.00000000	      0.00000000
      0.01000000	    -40.92852098	      1.04406312	     -2.43742445	      0.08950381	      0.96962372	     -0.20653684	      0.00000000	      0.50000000	      0.00000000	      0.25000000	    109.08587105	    -11.59058749	     -6.11919082	     82.86358321	      1.44624236	      5.19425623	      1.04709970	      0.00000000	      0.00000000	     81.42729823	     -9.75093188	     -0.88640107	     79.30032001	      1.38405168	     -8.98730871	    -11.31640296	      0.00000000	      0.00000000	    -22.02272824	      2.86594802	      0.97335393	     88.19043640	     -6.53941499	     59.54281750	     25.48923308	     43.96308359	      0.00000000	      0.00000000	     86.94182254	    -15.10861317	     61.33675028	     30.55189880	     45.23143146	      0.00000000	      0.00000000
      0.01500000	    -40.89782486	      1.04249433	     -2.43470402	      0.08949778	      0.96964922	     -0.20651279	      0.00000000	      0.50000000	      0.00000000	      0.25000000	    109.06203455	    -11.60109914	     -6.13452563	     82.88880369	      1.44668254	      5.23937731	      1.04679636	      0.00000000	      0.00000000	     81.39588115	     -9.77188910	     -0.90418131	     79.29657013	      1.38398623	     -8.90729931	    -11.21114903	      0.00000000	      0.00000000	    -22.05387998	      2.87778174	      0.96591753	     88.14665482	     -6.20381342	     58.68594264	     25.07162954	     43.75342442	      0.00000000	      0.00000000	     86.77941478	    -14.80838514	     60.10675783	     30.29482349	     44.99286053	      0.00000000	      0.00000000
      0.02000000	    -40.97307469	      1.04391053	     -2.36509477	      0.08956139	      0.96959326	     -0.20670925	      0.00000000	      0.50000000	      0.00000000	      0.25000000	    109.13401091	    -11.69783778	     -6.12395627	     82.89278296	      1.44675199	      5.26429456	      1.07409705	      0.00000000	      0.00000000	     81.42607270	     -9.66121251	     -0.89931801	     79.24097562	      1.38301593	     -8.95798369	    -11.42200708	      0.00000000	      0.00000000	    -21.98287713	      2.88768902	      0.91955892	     88.15099298	     -6.63031729	     59.51375841	     25.66370618	     44.17415979	      0.00000000	      0.00000000	     86.83789718	    -15.07500202	     60.99706148	     30.75039212	     45.30855489	      0.00000000	      0.00000000
      0.02500000	    -40.95034709	      0.98553217	     -2.45918364	      0.08951700	      0.96916662	     -0.20650713	      0.00000000	      0.50000000	      0.00000000	      0.25000000	    109.12381364	    -11.59269216	     -6.14857324	     82.94209820	      1.44761270	      5.40657589	      1.20849149	      0.00000000	      0.00000000	     81.37337612	     -9.77806863	     -0.86190915	     79.19262696	      1.38217208	     -9.04935932	    -11.52143985	      0.00000000	      0.00000000	    -22.01855459	      2.89446942	      1.04779436	     88.13750385	     -6.88702231	     60.03623172	     25.92977331	     44.37339562	      0.00000000	      0.00000000	     86.91223741	    -15.05458392	     61.39838193	     30.62497418	     45.33659974	      0.00000000	      0.00000000
      0.03000000	    -40.93134548	      0.90428807	     -2.42365002	      0.08943110	      0.96919929	     -0.20655215	      0.00000000	      0.50000000	      0.00000000	      0.25000000	    109.10026164	    -11.64533797	     -6.22708072	     82.96203668	      1.44796069	      5.39348343	      1.11822738	      0.00000000	      0.00000000	     81.36918577	     -9.75660431	     -0.76211716	     79.16800266	      1.38174231	     -9.02279766	    -11.40770565	      0.00000000	      0.00000000	    -22.04498502	      2.99520539	      1.02211904	     88.21153760	     -6.64375361	     60.21342794	     25.37479834	     44.13170262	      0.00000000	      0.00000000	     86.74996560	    -14.88648920	     60.27778347	     30.54212255	     45.53144695	      0.00000000	      0.00000000
      0.03500000	    -40.91158910	      0.91008949	     -2.43611026	      0.08937655	      0.96918426	     -0.20651300	      0.00000000	      0.50000000	      0.00000000	      0.25000000	    109.09884838	    -11.62484043	     -6.21958631	     82.97538684	      1.44819370	      5.39143876	      1.14499284	      0.00000000	      0.00000000	     81.34654774	     -9.78229558	     -0.78647096	     79.16098094	      1.38161976	     -9.02750158	    -11.36286095	      0.00000000	      0.00000000	    -22.05497884	      2.97293448	      1.04474693	     88.24833229	     -6.80351053	     60.62699994	     25.45405817	     44.19542819	      0.00000000	      0.00000000	     86.71892916	    -14.87274100	     60.24190463	     30.52410147	     45.31682383	      0.00000000	      0.00000000
      0.04000000	    -40.87070044	      0.91979083	     -2.42194334	      0.08938606	      0.96925451	     -0.20653123	      0.00000000	      0.50000000	      0.00000000	      0.25000000	    109.07482754	    -11.64132067	     -6.20489492	     83.00771470	      1.44875793	      5.39908425	      1.10682498	      0.00000000	      0.00000000	     81.29215890	     -9.77202982	     -0.81129805	     79.13941173	      1.38124330	     -9.05083335	    -11.37678504	      0.00000000	      0.00000000	    -22.13898629	      2.96732307	      1.02926088	     88.19477283	     -6.55553550	     59.80361056	     25.32127337	     44.04326543	      0.00000000	      0.00000000	     86.66761099	    -14.70933929	     59.67096892	     30.50482225	     45.24458117	      0.00000000	      0.00000000
      0.04500000	    -40.85140077	      0.91778888	     -2.44906072	      0.08931526	      0.96924505	     -0.20647113	      0.00000000	      0.50000000	      0.00000000	      0.25000000	    109.07310463	    -11.61494601	     -6.21386406	     83.01736496	      1.44892635	      5.35936250	      1.12494917	      0.00000000	      0.00000000	     81.27761058	     -9.82447908	     -0.84490773	     79.13083100	      1.38109354	     -9.06452079	    -11.39298777	      0.00000000	      0.00000000	    -22.16931524	      2.95158388	      0.98492411	     88.23177816	     -6.62515961	     60.12754256	     25.50076688	     44.06276861	      0.00000000	      0.00000000	     86.72421277	    -15.01406995	     60.04061795	     30.81553494	     45.30378859	      0.00000000	      0.00000000
      0.05000000	    -40.83966886	      0.92468827	     -2.41164484	      0.08927519	      0.96925309	     -0.20653241	      0.00000000	      0.50000000	      0.00000000	      0.25000000	    109.08645463	    -11.65322126	     -6.19243708	     83.05343313	      1.44955586	      5.40521541	      1.10225492	      0.00000000	      0.00000000	     81.25965792	     -9.78368757	     -0.84730007	     79.10336199	      1.38061412	     -9.06907698	    -11.33773665	      0.00000000	      0.00000000	    -22.19352575	      2.94703092	      0.98261090	     88.24195610	     -6.68238141	     60.17655919	     25.53613882	     43.98447124	      0.00000000	      0.00000000	     86.71340111	    -14.94125881	     59.98972561	     30.87574887	     45.27253768	      0.00000000	      0.00000000
